<?xml version="1.0" standalone="no"?>
<!DOCTYPE svg PUBLIC "-//W3C//DTD SVG 20010904//EN"
 "http://www.w3.org/TR/2001/REC-SVG-20010904/DTD/svg10.dtd">
<svg version="1.0" xmlns="http://www.w3.org/2000/svg"
 width="700.000000pt" height="700.000000pt" viewBox="0 0 700.000000 700.000000"
 preserveAspectRatio="xMidYMid meet">
<metadata>
Created by potrace 1.11, written by Peter Selinger 2001-2013
</metadata>
<g transform="translate(0.000000,700.000000) scale(0.100000,-0.100000)"
fill="#000000" stroke="none">
<path d="M3869 6489 c-574 -30 -1121 -215 -1618 -549 -368 -246 -683 -577
-841 -883 -19 -37 -39 -67 -44 -67 -18 0 -140 72 -198 116 -31 25 -109 93
-171 153 -230 218 -351 270 -401 173 -24 -46 -39 -204 -32 -322 17 -254 47
-396 167 -792 l60 -197 -45 -61 c-66 -89 -88 -155 -94 -277 -2 -56 1 -133 7
-170 16 -91 64 -245 112 -357 l39 -91 -24 -48 c-14 -26 -28 -72 -31 -102 -7
-53 -10 -57 -94 -133 -170 -155 -268 -228 -469 -347 -88 -53 -107 -73 -97
-105 10 -30 84 -76 171 -106 67 -23 101 -28 219 -32 77 -2 171 0 208 6 l68 11
92 -45 c116 -55 220 -82 347 -88 83 -4 107 -9 142 -30 63 -37 188 -76 271 -84
l72 -8 -162 -82 c-186 -95 -233 -132 -233 -183 0 -76 74 -124 187 -123 60 1
83 7 147 37 93 44 148 81 225 152 l59 55 178 4 c114 2 204 9 249 19 92 21 234
71 315 112 208 106 406 307 515 524 25 51 28 53 58 47 143 -29 275 -191 333
-411 26 -98 26 -312 0 -410 -74 -278 -283 -535 -615 -756 -276 -184 -682 -364
-1071 -475 -85 -25 -159 -47 -165 -49 -23 -11 593 5 728 19 692 71 1243 216
1732 456 554 271 954 650 1183 1122 105 215 153 385 167 593 26 379 -147 794
-463 1113 l-91 92 37 0 c147 -1 357 -123 539 -314 147 -153 224 -289 270 -474
26 -103 23 -346 -6 -482 -53 -251 -183 -547 -354 -807 -51 -78 -86 -138 -77
-133 39 21 249 212 381 346 319 326 567 698 694 1039 98 262 185 743 185 1023
0 206 -44 431 -114 578 -57 120 -93 171 -185 268 -148 153 -283 250 -484 346
-187 89 -388 148 -622 182 -133 19 -542 16 -674 -5 -57 -9 -106 -15 -108 -13
-5 4 137 69 223 101 94 36 269 81 389 102 140 23 447 23 570 0 248 -48 454
-133 610 -253 26 -19 49 -34 51 -32 8 8 -158 218 -246 311 -530 560 -1300 842
-2171 796z m-2489 -2668 c36 -18 94 -55 130 -81 74 -55 250 -230 340 -338 58
-70 125 -184 118 -202 -2 -5 -48 20 -103 56 -120 78 -207 121 -262 130 -36 6
-45 3 -69 -21 -22 -22 -26 -33 -21 -66 14 -102 100 -201 260 -297 56 -34 145
-77 198 -96 127 -45 155 -61 163 -88 22 -82 -13 -176 -103 -278 -73 -83 -96
-116 -118 -172 l-18 -45 -33 14 c-32 13 -32 14 -17 43 33 64 4 138 -78 200
-29 21 -115 86 -192 144 -284 213 -466 422 -544 626 -83 215 -53 398 79 478
52 32 59 33 130 30 60 -4 88 -11 140 -37z m-79 -1516 c41 -14 90 -27 110 -28
26 -2 47 -12 70 -36 46 -45 115 -78 206 -100 72 -17 76 -19 54 -31 -90 -47
-233 -21 -387 71 -63 38 -154 119 -154 137 0 17 18 15 101 -13z"/>
</g>
</svg>
